<?xml version="1.0" encoding="UTF-8" standalone="no"?>
<svg width="22px" height="22px" viewBox="0 0 22 22" version="1.1" xmlns="http://www.w3.org/2000/svg" xmlns:xlink="http://www.w3.org/1999/xlink">
    <!-- Generator: Sketch 3.6.1 (26313) - http://www.bohemiancoding.com/sketch -->
    <title>Combined Shape</title>
    <desc>Created with Sketch.</desc>
    <defs></defs>
    <g id="landing" stroke="none" stroke-width="1" fill="none" fill-rule="evenodd">
        <g transform="translate(-88.000000, -83.000000)" id="logo" fill="#9000FE">
            <g transform="translate(88.000000, 83.000000)">
                <path d="M11,22 C17.0751322,22 22,17.0751322 22,11 C22,4.92486775 17.0751322,0 11,0 C4.92486775,0 0,4.92486775 0,11 C0,17.0751322 4.92486775,22 11,22 Z M14.921875,13.4375 C14.8854165,14.0104195 14.7617198,14.5260394 14.5507812,14.984375 C14.3398427,15.4427106 14.0572934,15.8333317 13.703125,16.15625 C13.3489566,16.4791683 12.9270858,16.7278637 12.4375,16.9023438 C11.9479142,17.0768238 11.406253,17.1640625 10.8125,17.1640625 C10.1406216,17.1640625 9.54427344,17.0403658 9.0234375,16.7929688 C8.50260156,16.5455717 8.06510594,16.199221 7.7109375,15.7539062 C7.35676906,15.3085915 7.08593844,14.7734406 6.8984375,14.1484375 C6.71093656,13.5234344 6.6171875,12.8359413 6.6171875,12.0859375 L6.6171875,10.5546875 C6.6171875,9.79947539 6.71614484,9.10937812 6.9140625,8.484375 C7.11198016,7.85937187 7.39322734,7.32291891 7.7578125,6.875 C8.12239766,6.42708109 8.56379949,6.07942832 9.08203125,5.83203125 C9.60026301,5.58463418 10.1822884,5.4609375 10.828125,5.4609375 C11.4531281,5.4609375 12.0091121,5.54947828 12.4960938,5.7265625 C12.9830754,5.90364672 13.3984358,6.15624836 13.7421875,6.484375 C14.0859392,6.81250164 14.3567698,7.2135393 14.5546875,7.6875 C14.7526052,8.1614607 14.8776039,8.69530953 14.9296875,9.2890625 L12.7421875,9.2890625 C12.7213541,8.95051914 12.6705733,8.65364711 12.5898438,8.3984375 C12.5091142,8.14322789 12.3919279,7.93099043 12.2382812,7.76171875 C12.0846346,7.59244707 11.8919282,7.46484418 11.6601562,7.37890625 C11.4283843,7.29296832 11.1510433,7.25 10.828125,7.25 C10.4895816,7.25 10.1953138,7.32291594 9.9453125,7.46875 C9.69531125,7.61458406 9.48828207,7.82812359 9.32421875,8.109375 C9.16015543,8.39062641 9.03906289,8.73567504 8.9609375,9.14453125 C8.88281211,9.55338746 8.84375,10.0182266 8.84375,10.5390625 L8.84375,12.0859375 C8.84375,13.2057348 9.00130051,14.0338515 9.31640625,14.5703125 C9.63151199,15.1067735 10.1302049,15.375 10.8125,15.375 C11.3854195,15.375 11.83854,15.2226578 12.171875,14.9179688 C12.50521,14.6132797 12.690104,14.1197951 12.7265625,13.4375 L14.921875,13.4375 Z" id="Combined-Shape"></path>
            </g>
        </g>
    </g>
</svg>