<?xml version="1.0" encoding="UTF-8" standalone="no"?>
<svg width="724px" height="32px" viewBox="0 0 724 32" version="1.1" xmlns="http://www.w3.org/2000/svg" xmlns:xlink="http://www.w3.org/1999/xlink">
    <!-- Generator: Sketch 3.6.1 (26313) - http://www.bohemiancoding.com/sketch -->
    <title>logos</title>
    <desc>Created with Sketch.</desc>
    <defs>
        <filter x="-50%" y="-50%" width="200%" height="200%" filterUnits="objectBoundingBox" id="filter-1">
            <feOffset dx="0" dy="-1" in="SourceAlpha" result="shadowOffsetInner1"></feOffset>
            <feGaussianBlur stdDeviation="0" in="shadowOffsetInner1" result="shadowBlurInner1"></feGaussianBlur>
            <feComposite in="shadowBlurInner1" in2="SourceAlpha" operator="arithmetic" k2="-1" k3="1" result="shadowInnerInner1"></feComposite>
            <feColorMatrix values="0 0 0 0 1   0 0 0 0 1   0 0 0 0 1  0 0 0 0.14 0" in="shadowInnerInner1" type="matrix" result="shadowMatrixInner1"></feColorMatrix>
            <feMerge>
                <feMergeNode in="SourceGraphic"></feMergeNode>
                <feMergeNode in="shadowMatrixInner1"></feMergeNode>
            </feMerge>
        </filter>
        <linearGradient x1="50%" y1="0%" x2="50%" y2="100%" id="linearGradient-2">
            <stop stop-color="#F1F1F1" offset="0%"></stop>
            <stop stop-color="#EAEAEA" offset="100%"></stop>
        </linearGradient>
        <filter x="-50%" y="-50%" width="200%" height="200%" filterUnits="objectBoundingBox" id="filter-3">
            <feOffset dx="0" dy="0" in="SourceAlpha" result="shadowOffsetOuter1"></feOffset>
            <feGaussianBlur stdDeviation="0" in="shadowOffsetOuter1" result="shadowBlurOuter1"></feGaussianBlur>
            <feColorMatrix values="0 0 0 0 0   0 0 0 0 0   0 0 0 0 0  0 0 0 0.0587890625 0" in="shadowBlurOuter1" type="matrix" result="shadowMatrixOuter1"></feColorMatrix>
            <feMerge>
                <feMergeNode in="shadowMatrixOuter1"></feMergeNode>
                <feMergeNode in="SourceGraphic"></feMergeNode>
            </feMerge>
        </filter>
        <filter x="-50%" y="-50%" width="200%" height="200%" filterUnits="objectBoundingBox" id="filter-4">
            <feOffset dx="0" dy="0" in="SourceAlpha" result="shadowOffsetInner1"></feOffset>
            <feGaussianBlur stdDeviation="0" in="shadowOffsetInner1" result="shadowBlurInner1"></feGaussianBlur>
            <feComposite in="shadowBlurInner1" in2="SourceAlpha" operator="arithmetic" k2="-1" k3="1" result="shadowInnerInner1"></feComposite>
            <feColorMatrix values="0 0 0 0 0   0 0 0 0 0   0 0 0 0 0  0 0 0 0.0260558197 0" in="shadowInnerInner1" type="matrix" result="shadowMatrixInner1"></feColorMatrix>
            <feMerge>
                <feMergeNode in="SourceGraphic"></feMergeNode>
                <feMergeNode in="shadowMatrixInner1"></feMergeNode>
            </feMerge>
        </filter>
    </defs>
    <g id="landing" stroke="none" stroke-width="1" fill="none" fill-rule="evenodd">
        <g transform="translate(-140.000000, -1486.000000)" id="logos">
            <g transform="translate(0.000000, 1334.000000)">
                <rect id="-bg" fill="#F9F4FC" x="0" y="0" width="1024" height="376"></rect>
                <g transform="translate(140.000000, 134.000000)">
                    <g id="logotype-2" transform="translate(0.000000, 18.000000)" fill="#9000FE">
                        <g id="logotype" transform="translate(0.773710, 0.843137)">
                            <g id="step-4-4">
                                <path d="M24.1198003,23.8333333 L24.1198003,14.5294118 C24.0517438,9.16817955 19.7470931,4.84313725 14.4467554,4.84313725 C9.10448021,4.84313725 4.77371048,9.23689182 4.77371048,14.6568627 C4.77371048,20.0768337 9.10448021,24.4705882 14.4467554,24.4705882 C16.9458531,24.4705882 19.2235994,23.5090872 20.9402027,21.9308187 L23.0268703,24.2641183 L23.0283033,24.2635535 C23.1431413,24.3907962 23.3082263,24.4705882 23.4916805,24.4705882 C23.8385815,24.4705882 24.1198003,24.1852795 24.1198003,23.8333333 Z M0,2.49927175 C0,1.11896208 1.11495573,0 2.5009952,0 L26.3925156,0 C27.7737771,0 28.8935108,1.11333763 28.8935108,2.49927175 L28.8935108,26.8144537 C28.8935108,28.1947634 27.7785551,29.3137255 26.3925156,29.3137255 L2.5009952,29.3137255 C1.11973369,29.3137255 0,28.2003879 0,26.8144537 L0,2.49927175 Z M12.9651493,15.7914725 L11.574,14.3803929 C11.1096607,13.9094012 10.3580754,13.9094005 9.89451218,14.379605 C9.43189217,14.8488528 9.43129669,15.6125144 9.89528896,16.083154 L12.0433045,18.2619431 C12.3162498,18.5387987 12.6884459,18.6529149 13.0430531,18.6044512 C13.3053302,18.5841336 13.5618471,18.4725272 13.7621299,18.2693176 L19.012181,12.942546 C19.4580752,12.4901358 19.4573844,11.7551348 19.0101528,11.3013677 C18.5638313,10.8485239 17.8387236,10.8466793 17.3926122,11.2993099 L12.9651493,15.7914725 Z" id="Combined-Shape"></path>
                            </g>
                        </g>
                        <path d="M40.7427321,8.15066667 C36.8941165,8.15066667 34.2725957,11.2630196 34.2725957,15.5354314 C34.2725957,19.8078431 36.8941165,22.9201961 40.7427321,22.9201961 C42.9459251,22.9201961 44.4240166,21.9864902 45.2327837,20.9113137 L45.3443378,22.6372549 L47.826416,22.6372549 L47.826416,8.43360784 L45.3443378,8.43360784 L45.2327837,10.159549 C44.4240166,9.08437255 42.9459251,8.15066667 40.7427321,8.15066667 L40.7427321,8.15066667 Z M41.2447255,10.6122549 C43.1132562,10.6122549 44.2566855,11.6308431 45.0933411,13.0172549 L45.0933411,18.0536078 C44.2566855,19.4400196 43.1132562,20.4586078 41.2447255,20.4586078 C38.7905358,20.4586078 37.0335591,18.4780196 37.0335591,15.5354314 C37.0335591,12.5928431 38.7905358,10.6122549 41.2447255,10.6122549 L41.2447255,10.6122549 Z M62.0636306,8.43360784 L51.1592196,8.43360784 L51.1592196,10.8103137 L57.6851331,10.8103137 L50.7408919,22.5240784 L50.7408919,22.6372549 L62.0357421,22.6372549 L62.0357421,20.260549 L55.0915008,20.260549 L62.0636306,8.54678431 L62.0636306,8.43360784 Z M70.3884792,8.15066667 C66.456198,8.15066667 63.6952346,11.2913137 63.6952346,15.5637255 C63.6952346,19.8361373 66.3725325,22.9201961 70.6952529,22.9201961 C73.2331082,22.9201961 75.0458619,22.0147843 76.3845108,20.3454314 L74.4880915,18.7326667 C73.7908786,19.7229608 72.5358952,20.5434902 70.6952529,20.5434902 C68.0458436,20.5434902 66.5398636,19.1287843 66.456198,16.5257255 L76.7191731,16.5257255 L76.7191731,15.4222549 C76.7191731,11.4327843 74.5717571,8.15066667 70.3884792,8.15066667 L70.3884792,8.15066667 Z M70.3884792,10.5273725 C72.6474493,10.5273725 73.9303212,12.0269608 74.0139867,14.2621961 L66.456198,14.2621961 C66.5956406,11.9986667 68.1295092,10.5273725 70.3884792,10.5273725 L70.3884792,10.5273725 Z M86.940441,8.15066667 C84.793025,8.15066667 83.3149335,9.11266667 82.5061664,10.159549 L82.3946124,8.43360784 L79.9125342,8.43360784 L79.9125342,22.6372549 L82.645609,22.6372549 L82.645609,13.045549 C83.5101531,11.8006078 84.6256939,10.7820196 86.2711165,10.7820196 C88.2512014,10.7820196 89.5061847,12.2533137 89.5061847,14.4036667 L89.5061847,22.6372549 L92.2392596,22.6372549 L92.2392596,14.233902 C92.2392596,10.5839608 90.3149518,8.15066667 86.940441,8.15066667 L86.940441,8.15066667 Z M108.540225,1.13372549 L105.80715,1.13372549 L105.80715,9.9614902 C104.970494,8.97119608 103.54818,8.15066667 101.456541,8.15066667 C97.6079252,8.15066667 94.9864044,11.2630196 94.9864044,15.5354314 C94.9864044,19.8078431 97.6079252,22.9201961 101.456541,22.9201961 C103.659734,22.9201961 105.137825,21.9864902 105.946592,20.9113137 L106.058146,22.6372549 L108.540225,22.6372549 L108.540225,1.13372549 Z M101.958534,10.6122549 C103.827065,10.6122549 104.970494,11.6308431 105.80715,13.0172549 L105.80715,18.0536078 C104.970494,19.4400196 103.827065,20.4586078 101.958534,20.4586078 C99.5043445,20.4586078 97.7473678,18.4780196 97.7473678,15.5354314 C97.7473678,12.5928431 99.5043445,10.6122549 101.958534,10.6122549 L101.958534,10.6122549 Z M118.81727,8.15066667 C114.66188,8.15066667 111.64992,11.2913137 111.64992,15.5637255 C111.64992,19.8361373 114.66188,22.9201961 118.81727,22.9201961 C122.972659,22.9201961 126.012508,19.8361373 126.012508,15.5637255 C126.012508,11.2913137 122.972659,8.15066667 118.81727,8.15066667 L118.81727,8.15066667 Z M118.81727,10.6122549 C121.383013,10.6122549 123.251544,12.7060196 123.251544,15.5637255 C123.251544,18.3931373 121.383013,20.4586078 118.81727,20.4586078 C116.251526,20.4586078 114.410884,18.3931373 114.410884,15.5637255 C114.410884,12.7060196 116.251526,10.6122549 118.81727,10.6122549 L118.81727,10.6122549 Z M134.978792,8.15066667 C130.823403,8.15066667 127.811443,11.2913137 127.811443,15.5637255 C127.811443,19.8361373 130.823403,22.9201961 134.978792,22.9201961 C139.134181,22.9201961 142.17403,19.8361373 142.17403,15.5637255 C142.17403,11.2913137 139.134181,8.15066667 134.978792,8.15066667 L134.978792,8.15066667 Z M134.978792,10.6122549 C137.544536,10.6122549 139.413067,12.7060196 139.413067,15.5637255 C139.413067,18.3931373 137.544536,20.4586078 134.978792,20.4586078 C132.413048,20.4586078 130.572406,18.3931373 130.572406,15.5637255 C130.572406,12.7060196 132.413048,10.6122549 134.978792,10.6122549 L134.978792,10.6122549 Z" id="azendoo"></path>
                    </g>
                    <rect id="logo" x="192" y="0" width="160" height="66"></rect>
                    <g id="logo" transform="translate(203.000000, 22.000000)" fill="#9000FE">
                        <g transform="translate(0.381818, 0.344828)">
                            <path d="M8.36490448,1.8019763 C7.50163888,0.746424731 6.18428577,0.0719336418 4.70830655,0.0719336418 C2.10798065,0.0719336418 0,2.16542561 0,4.74787882 C0,6.58429972 1.06597287,8.17346056 2.61693663,8.93837261 C2.58474533,8.67958809 2.56816721,8.41599986 2.56816721,8.14856622 C2.56816721,4.83600396 5.11166416,2.11342409 8.36490448,1.8019763 L8.36490448,1.8019763 L8.36490448,1.8019763 Z M15.5308468,6.47469197 C14.5624267,4.53798773 12.5504629,3.20689655 10.2254545,3.20689655 C6.95592883,3.20689655 4.30545455,5.83915345 4.30545455,9.0862069 C4.30545455,10.9292772 5.15939682,12.5742694 6.49578231,13.652238 C6.89009208,9.58988364 10.3370258,6.4137931 14.5309091,6.4137931 C14.8694946,6.4137931 15.2032116,6.43449437 15.5308468,6.47469197 L15.5308468,6.47469197 L15.5308468,6.47469197 Z M14.5309091,20.3103448 C17.8004348,20.3103448 20.4509091,17.6780879 20.4509091,14.4310345 C20.4509091,11.183981 17.8004348,8.55172414 14.5309091,8.55172414 C11.2613834,8.55172414 8.61090909,11.183981 8.61090909,14.4310345 C8.61090909,17.6780879 11.2613834,20.3103448 14.5309091,20.3103448 L14.5309091,20.3103448 Z" id="mark"></path>
                            <path d="M38.1118836,17.1034483 C43.0373236,17.1034483 46.3525236,13.8815862 46.3525236,9.24868966 C46.3525236,4.66282759 43.0373236,1.41744828 38.0882036,1.41744828 L32.2155636,1.41744828 L32.2155636,17.1034483 L38.1118836,17.1034483 Z M38.0882036,14.6811724 L34.9861236,14.6811724 L34.9861236,3.83972414 L38.1118836,3.83972414 C41.6165236,3.83972414 43.5109236,6.23848276 43.5109236,9.24868966 C43.5109236,12.2353793 41.5218036,14.6811724 38.0882036,14.6811724 L38.0882036,14.6811724 Z M51.4437236,17.1034483 L51.4437236,9.36627586 C51.9410036,8.54317241 53.3381236,7.83765517 54.4037236,7.83765517 C54.7115636,7.83765517 54.9483636,7.86117241 55.1614836,7.9082069 L55.1614836,5.46241379 C53.6933236,5.46241379 52.3198836,6.30903448 51.4437236,7.39082759 L51.4437236,5.74462069 L48.9573236,5.74462069 L48.9573236,17.1034483 L51.4437236,17.1034483 Z M67.3803636,17.1034483 L67.3803636,5.74462069 L64.8939636,5.74462069 L64.8939636,13.7169655 C64.3256436,14.4695172 63.2363636,15.1985517 61.9813236,15.1985517 C60.5605236,15.1985517 59.6606836,14.6341379 59.6606836,12.8703448 L59.6606836,5.74462069 L57.1742836,5.74462069 L57.1742836,13.7875172 C57.1742836,16.0922069 58.4056436,17.3856552 60.8683636,17.3856552 C62.6680436,17.3856552 64.0888436,16.492 64.8939636,15.5983448 L64.8939636,17.1034483 L67.3803636,17.1034483 Z M73.0872436,13.6934483 L73.0872436,9.17813793 C73.6555636,8.33151724 74.8632436,7.64951724 76.0472436,7.64951724 C78.0126836,7.64951724 79.2677236,9.22517241 79.2677236,11.4122759 C79.2677236,13.6228966 78.0126836,15.1985517 76.0472436,15.1985517 C74.8632436,15.1985517 73.6555636,14.540069 73.0872436,13.6934483 L73.0872436,13.6934483 Z M73.0872436,17.1034483 L73.0872436,15.5513103 C73.9634036,16.6801379 75.2894836,17.3856552 76.7576436,17.3856552 C79.6939636,17.3856552 81.8488436,15.1750345 81.8488436,11.4122759 C81.8488436,7.74358621 79.7176436,5.46241379 76.7576436,5.46241379 C75.3368436,5.46241379 74.0107636,6.09737931 73.0872436,7.32027586 L73.0872436,1.41744828 L70.6008436,1.41744828 L70.6008436,17.1034483 L73.0872436,17.1034483 Z M86.8453236,13.6934483 L86.8453236,9.17813793 C87.4136436,8.33151724 88.6213236,7.64951724 89.8053236,7.64951724 C91.7707636,7.64951724 93.0258036,9.22517241 93.0258036,11.4122759 C93.0258036,13.6228966 91.7707636,15.1985517 89.8053236,15.1985517 C88.6213236,15.1985517 87.4136436,14.540069 86.8453236,13.6934483 L86.8453236,13.6934483 Z M86.8453236,17.1034483 L86.8453236,15.5513103 C87.7214836,16.6801379 89.0475636,17.3856552 90.5157236,17.3856552 C93.4520436,17.3856552 95.6069236,15.1750345 95.6069236,11.4122759 C95.6069236,7.74358621 93.4757236,5.46241379 90.5157236,5.46241379 C89.0949236,5.46241379 87.7688436,6.09737931 86.8453236,7.32027586 L86.8453236,1.41744828 L84.3589236,1.41744828 L84.3589236,17.1034483 L86.8453236,17.1034483 Z M100.603404,13.6934483 L100.603404,9.17813793 C101.171724,8.33151724 102.379404,7.64951724 103.563404,7.64951724 C105.528844,7.64951724 106.783884,9.22517241 106.783884,11.4122759 C106.783884,13.6228966 105.528844,15.1985517 103.563404,15.1985517 C102.379404,15.1985517 101.171724,14.540069 100.603404,13.6934483 L100.603404,13.6934483 Z M100.603404,17.1034483 L100.603404,15.5513103 C101.479564,16.6801379 102.805644,17.3856552 104.273804,17.3856552 C107.210124,17.3856552 109.365004,15.1750345 109.365004,11.4122759 C109.365004,7.74358621 107.233804,5.46241379 104.273804,5.46241379 C102.853004,5.46241379 101.526924,6.09737931 100.603404,7.32027586 L100.603404,1.41744828 L98.1170036,1.41744828 L98.1170036,17.1034483 L100.603404,17.1034483 Z M114.361484,17.1034483 L114.361484,1.41744828 L111.875084,1.41744828 L111.875084,17.1034483 L114.361484,17.1034483 Z M122.886284,17.3856552 C124.685964,17.3856552 126.367244,16.7977241 127.527564,15.715931 L126.390924,14.0932414 C125.562124,14.9163448 124.259724,15.3631724 123.123084,15.3631724 C120.968204,15.3631724 119.689484,13.9286207 119.500044,12.2353793 L128.309004,12.2353793 L128.309004,11.623931 C128.309004,8.04931034 126.130444,5.46241379 122.696844,5.46241379 C119.310604,5.46241379 116.895244,8.11986207 116.895244,11.4122759 C116.895244,15.0104138 119.429004,17.3856552 122.886284,17.3856552 L122.886284,17.3856552 Z M125.917324,10.4715862 L119.476364,10.4715862 C119.571084,9.10758621 120.565644,7.48489655 122.673164,7.48489655 C124.922764,7.48489655 125.846284,9.13110345 125.917324,10.4715862 L125.917324,10.4715862 Z M133.258124,17.1034483 L133.258124,9.36627586 C133.755404,8.54317241 135.152524,7.83765517 136.218124,7.83765517 C136.525964,7.83765517 136.762764,7.86117241 136.975884,7.9082069 L136.975884,5.46241379 C135.507724,5.46241379 134.134284,6.30903448 133.258124,7.39082759 L133.258124,5.74462069 L130.771724,5.74462069 L130.771724,17.1034483 L133.258124,17.1034483 Z" id="drubbbler"></path>
                        </g>
                    </g>
                    <g id="logo" transform="translate(402.000000, 16.000000)">
                        <text id="Papier" font-family="RobotoMono-Light, Roboto Mono" font-size="25.8611111" font-weight="300" letter-spacing="-0.340277772" fill="#9000FE">
                            <tspan x="48.9320388" y="27">Papier</tspan>
                        </text>
                        <g id="icon" transform="translate(0.000000, 2.066931)">
                            <rect id="bg" fill="#9308FD" filter="url(#filter-1)" x="0" y="0.653069307" width="40.776699" height="30.6" rx="0.680555556"></rect>
                            <rect id="select" fill="#33CC33" opacity="0.15" x="6.45631068" y="22.9988119" width="10.8737864" height="2.74693069"></rect>
                            <text id="Muxu•Muxu-Code" font-family="RobotoMono-Medium, Roboto Mono" font-size="2.04166667" font-weight="400" fill="#FFFFFF">
                                <tspan x="4.41747573" y="11.2641584">Muxu•Muxu Code</tspan>
                                <tspan x="21.5702671" y="11.2641584" font-family="RobotoMono-Regular, Roboto Mono" font-weight="normal"></tspan>
                                <tspan x="4.41747573" y="14.2641584" font-family="RobotoMono-Regular, Roboto Mono" font-weight="normal">- make something you love</tspan>
                                <tspan x="4.41747573" y="17.2641584" font-family="RobotoMono-Regular, Roboto Mono" font-weight="normal">- do the right thing</tspan>
                                <tspan x="4.41747573" y="20.2641584" font-family="RobotoMono-Regular, Roboto Mono" font-weight="normal">- be productive</tspan>
                                <tspan x="4.41747573" y="23.2641584" font-family="RobotoMono-Regular, Roboto Mono" font-weight="normal">- have a clear vision</tspan>
                                <tspan x="4.41747573" y="26.2641584" font-family="RobotoMono-Regular, Roboto Mono" font-weight="normal">- be happy</tspan>
                            </text>
                            <path d="M0,1.35525722 C0,0.982322954 0.304777414,0.68 0.673734708,0.68 L40.1029643,0.68 C40.4750577,0.68 40.776699,0.976377186 40.776699,1.35525722 L40.776699,4.4570297 L0,4.4570297 L0,1.35525722 Z M4.86065022,2.34720452 C4.99123086,1.99534086 5.40651835,1.71009901 5.77112833,1.71009901 L18.0152794,1.71009901 C18.387542,1.71009901 18.7984159,2.00406871 18.9257575,2.34720452 L19.7087379,4.4570297 L4.0776699,4.4570297 L4.86065022,2.34720452 Z" id="top" fill="url(#linearGradient-2)" opacity="0.194437966" filter="url(#filter-3)"></path>
                            <ellipse id="action" fill="#D8D8D8" filter="url(#filter-4)" cx="2.03883495" cy="2.69306931" rx="0.67961165" ry="0.68"></ellipse>
                            <rect id="cursor" fill="#33CC33" x="16.9902913" y="23.0930693" width="0.340277778" height="2.72"></rect>
                        </g>
                    </g>
                    <text id="#captain" font-family="Radikal-Medium, Radikal" font-size="25.0400009" font-weight="400" fill="#9000FE">
                        <tspan x="618" y="41">#captain</tspan>
                    </text>
                </g>
            </g>
        </g>
    </g>
</svg>