<?xml version="1.0" encoding="UTF-8" standalone="no"?>
<svg width="92px" height="122px" viewBox="0 0 92 122" version="1.1" xmlns="http://www.w3.org/2000/svg" xmlns:xlink="http://www.w3.org/1999/xlink">
    <!-- Generator: Sketch 3.6.1 (26313) - http://www.bohemiancoding.com/sketch -->
    <title>Group 2</title>
    <desc>Created with Sketch.</desc>
    <defs></defs>
    <g id="landing" stroke="none" stroke-width="1" fill="none" fill-rule="evenodd">
        <g transform="translate(-80.000000, -971.000000)" id="features">
            <g transform="translate(80.000000, 971.000000)">
                <g id="feature">
                    <g id="Group-2" transform="translate(1.000000, 1.000000)">
                        <rect id="icon" stroke="#9000FE" stroke-width="2" x="0" y="0" width="90" height="120" rx="2"></rect>
                        <g id="ic_thumb_up_black_24px" transform="translate(21.000000, 36.000000)">
                            <path d="M0,0 L48,0 L48,48 L0,48 L0,0 Z" id="Shape"></path>
                            <path d="M6.99833453,42 C8.65610859,42 10,40.6582294 10,39.0089096 L10,20.9910904 C10,19.3391568 8.66097987,18 6.99833453,18 L5.00166547,18 C3.34389141,18 2,19.3417706 2,20.9910904 L2,39.0089096 C2,40.6608432 3.33902013,42 5.00166547,42 L6.99833453,42 Z M46,20 C46,17.8 44.2,16 42,16 L29.38,16 L31.28,6.86 L31.34,6.22 C31.34,5.4 31,4.64 30.46,4.1 L28.34,2 L15.18,15.18 C14.44,15.9 14,16.9 14,18 L14,38 C14,40.2 15.8,42 18,42 L36,42 C37.66,42 39.08,41 39.68,39.56 L45.72,25.46 C45.9,25 46,24.52 46,24 L46,20.18 L45.98,20.16 L46,20 L46,20 Z" id="Shape" fill="#9000FE"></path>
                        </g>
                    </g>
                </g>
            </g>
        </g>
    </g>
</svg>