<?xml version="1.0" encoding="UTF-8" standalone="no"?>
<svg width="134px" height="122px" viewBox="0 0 134 122" version="1.1" xmlns="http://www.w3.org/2000/svg" xmlns:xlink="http://www.w3.org/1999/xlink">
    <!-- Generator: Sketch 3.6.1 (26313) - http://www.bohemiancoding.com/sketch -->
    <title>Group 3</title>
    <desc>Created with Sketch.</desc>
    <defs></defs>
    <g id="landing" stroke="none" stroke-width="1" fill="none" fill-rule="evenodd">
        <g transform="translate(-387.000000, -971.000000)" id="features">
            <g transform="translate(80.000000, 971.000000)">
                <g id="feature" transform="translate(307.000000, 0.000000)">
                    <g id="Group-3" transform="translate(1.000000, 1.000000)">
                        <circle id="circle" stroke="#9000FE" stroke-width="2" stroke-linecap="round" stroke-linejoin="round" stroke-dasharray="2,4" fill-opacity="0.5" fill="#FFFFFF" opacity="0.2" cx="91.5" cy="53.5" r="40.5"></circle>
                        <rect id="icon" stroke="#9000FE" stroke-width="2" fill="#FFFFFF" x="0" y="0" width="90" height="120" rx="2"></rect>
                        <path d="M27.9983345,79 C29.6561086,79 31,77.6582294 31,76.0089096 L31,57.9910904 C31,56.3391568 29.6609799,55 27.9983345,55 L26.0016655,55 C24.3438914,55 23,56.3417706 23,57.9910904 L23,76.0089096 C23,77.6608432 24.3390201,79 26.0016655,79 L27.9983345,79 Z M67,57 C67,54.8 65.2,53 63,53 L50.38,53 L52.28,43.86 L52.34,43.22 C52.34,42.4 52,41.64 51.46,41.1 L49.34,39 L36.18,52.18 C35.44,52.9 35,53.9 35,55 L35,75 C35,77.2 36.8,79 39,79 L57,79 C58.66,79 60.08,78 60.68,76.56 L66.72,62.46 C66.9,62 67,61.52 67,61 L67,57.18 L66.98,57.16 L67,57 L67,57 Z" id="Shape" fill="#9000FE" opacity="0.157707556"></path>
                        <rect id="icon" stroke="#9000FE" stroke-width="2" fill="#FFFFFF" x="65" y="60" width="50" height="50" rx="2"></rect>
                        <circle id="Oval-6" fill="#9000FE" cx="90" cy="85" r="17"></circle>
                        <circle id="Oval-7" fill="#FFFFFF" cx="83" cy="81" r="2"></circle>
                        <circle id="Oval-7" fill="#FFFFFF" cx="97" cy="81" r="2"></circle>
                        <path d="M96.4582639,87 C95.9769483,90.1341129 93.2687714,92.5343029 90,92.5343029 C86.7312286,92.5343029 84.0230517,90.1341129 83.5417361,87 L96.4582639,87 Z" id="Combined-Shape" fill="#FFFFFF"></path>
                        <path d="M74,120 L90,120 L90,110 L65,110 L74,120 Z" id="icon" fill="#9000FE" opacity="0.112290112"></path>
                    </g>
                </g>
            </g>
        </g>
    </g>
</svg>