<?xml version="1.0" encoding="UTF-8" standalone="no"?>
<svg width="152px" height="122px" viewBox="0 0 152 122" version="1.1" xmlns="http://www.w3.org/2000/svg" xmlns:xlink="http://www.w3.org/1999/xlink">
    <!-- Generator: Sketch 3.6.1 (26313) - http://www.bohemiancoding.com/sketch -->
    <title>Group 4@2x</title>
    <desc>Created with Sketch.</desc>
    <defs></defs>
    <g id="landing" stroke="none" stroke-width="1" fill="none" fill-rule="evenodd">
        <g transform="translate(-694.000000, -971.000000)" id="features">
            <g transform="translate(80.000000, 971.000000)">
                <g id="feature" transform="translate(614.000000, 0.000000)">
                    <g id="Group-4" transform="translate(1.000000, 1.000000)">
                        <rect id="icon" stroke="#9000FE" stroke-width="2" fill="#FFFFFF" x="0" y="0" width="90" height="120" rx="2"></rect>
                        <path d="M27.9983345,78 C29.6561086,78 31,76.6582294 31,75.0089096 L31,56.9910904 C31,55.3391568 29.6609799,54 27.9983345,54 L26.0016655,54 C24.3438914,54 23,55.3417706 23,56.9910904 L23,75.0089096 C23,76.6608432 24.3390201,78 26.0016655,78 L27.9983345,78 Z M67,56 C67,53.8 65.2,52 63,52 L50.38,52 L52.28,42.86 L52.34,42.22 C52.34,41.4 52,40.64 51.46,40.1 L49.34,38 L36.18,51.18 C35.44,51.9 35,52.9 35,54 L35,74 C35,76.2 36.8,78 39,78 L57,78 C58.66,78 60.08,77 60.68,75.56 L66.72,61.46 C66.9,61 67,60.52 67,60 L67,56.18 L66.98,56.16 L67,56 L67,56 Z" id="Shape" fill="#9000FE" opacity="0.157707556"></path>
                        <rect id="icon" stroke="#9000FE" stroke-width="2" fill="#FFFFFF" x="60" y="10" width="90" height="110" rx="2"></rect>
                        <path d="M87.9983345,88 C89.6561086,88 91,86.6582294 91,85.0089096 L91,66.9910904 C91,65.3391568 89.6609799,64 87.9983345,64 L86.0016655,64 C84.3438914,64 83,65.3417706 83,66.9910904 L83,85.0089096 C83,86.6608432 84.3390201,88 86.0016655,88 L87.9983345,88 Z M127,66 C127,63.8 125.2,62 123,62 L110.38,62 L112.28,52.86 L112.34,52.22 C112.34,51.4 112,50.64 111.46,50.1 L109.34,48 L96.18,61.18 C95.44,61.9 95,62.9 95,64 L95,84 C95,86.2 96.8,88 99,88 L117,88 C118.66,88 120.08,87 120.68,85.56 L126.72,71.46 C126.9,71 127,70.52 127,70 L127,66.18 L126.98,66.16 L127,66 L127,66 Z" id="Shape" fill="#9000FE"></path>
                        <path d="M60,10 L0,75 L0,120 L60,120 L60,10 Z" id="shadow" fill="#9000FE" opacity="0.0497901119"></path>
                    </g>
                </g>
            </g>
        </g>
    </g>
</svg>