<svg xmlns="http://www.w3.org/2000/svg" xmlns:xlink="http://www.w3.org/1999/xlink">

  <symbol id="icon-options" viewBox="0 0 9 25">
    <g stroke="none" stroke-width="1" fill-rule="evenodd">
      <path d="M2 4.005C2 2.898 2.894 2 4.005 2h.99C6.102 2 7 2.894 7 4.005v.99C7 6.102 6.106 7 4.995 7h-.99C2.898 7 2 6.106 2 4.995v-.99zm0 8C2 10.898 2.894 10 4.005 10h.99C6.102 10 7 10.894 7 12.005v.99C7 14.102 6.106 15 4.995 15h-.99C2.898 15 2 14.106 2 12.995v-.99zm0 8C2 18.898 2.894 18 4.005 18h.99C6.102 18 7 18.894 7 20.005v.99C7 22.102 6.106 23 4.995 23h-.99C2.898 23 2 22.106 2 20.995v-.99z" id="project"/>
    </g>
  </symbol>

  <symbol id="icon-close" viewBox="0 0 20 20">
    <g stroke="none" stroke-width="1" fill-rule="evenodd">
      <path d="M9.85 6.314L5.602 2.068c-.772-.772-2.045-.775-2.828.007l-.7.7c-.785.786-.786 2.05-.007 2.828L6.314 9.85l-4.246 4.245c-.772.772-.776 2.045.007 2.827l.7.7c.786.786 2.05.787 2.828.008l4.246-4.246 4.245 4.246c.772.772 2.044.775 2.827-.007l.7-.7c.786-.786.786-2.05.008-2.828L13.384 9.85l4.246-4.247c.772-.772.775-2.045-.008-2.827l-.7-.7c-.785-.786-2.05-.787-2.827-.008L9.85 6.314z" id="project"/>
    </g>
  </symbol>

  <symbol id="icon-delete" viewBox="0 0 20 22">
    <g stroke="none" stroke-width="1" fill-rule="evenodd">
      <g id="project">
        <path d="M2 4h16v6H2V4zm2 2h12v2H4V6zm3-4h6v2H7V2z" id="Rectangle-102"/>
        <path d="M4 8h12v12H4V8zm2 2h8v8H6v-8z"/>
      </g>
    </g>
  </symbol>

  <symbol id="icon-duplicate" viewBox="0 0 22 22">
    <g stroke="none" stroke-width="1" fill-rule="evenodd">
      <g id="project">
        <path d="M2 2h12v12H2V2zm2 2h8v8H4V4z" id="Rectangle-102"/>
        <path d="M8 8h12v12H8V8zm2 2h8v8h-8v-8z"/>
      </g>
    </g>
  </symbol>

  <symbol id="icon-edit" viewBox="0 0 23 23">
    <g stroke="none" stroke-width="1" fill-rule="evenodd">
      <g id="project">
        <path d="M4 3h5v2H5v4H3V3h1zM3 3h18v18H3V3zm2 2h14v14H5V5z"/>
        <path d="M2.016 4.137l2.12-2.12L14.743 12.62l-2.12 2.122L2.015 4.137zm14.908 12.787l-2.12-4.242-2.122 2.12 4.242 2.122z"/>
      </g>
    </g>
  </symbol>

  <symbol id="icon-share" viewBox="0 0 22 23">
    <g stroke="none" stroke-width="1" fill-rule="evenodd">
      <g id="project">
        <path d="M2 9h18v12H2V9zm2 2h14v8H4v-8zm2-2h10v2H6V9z"/>
        <path d="M12 5.5V16h-2V5.5L7.5 8 6 6.5 10.5 2l.5.5.5-.5L16 6.5 14.5 8 12 5.5z"/>
      </g>
    </g>
  </symbol>

</svg>
